PathFileType	4	(X/Y/Z)	Patient5_TMGait_0pt45_1_right_09.trc.trc
DataRate	CameraRate	NumFrames	NumMarkers	Units	OrigDataRate	OrigDataStartFrame	OrigNumFrames
58.091286307054	58.091286307054	4	32	mm	58.091286307054	36	       141
Frame#	Time	R.ASIS			L.ASIS			Chest			R.Shoulder			Neck			L.Shoulder			L.Elbow			L.Wrist			R.Elbow			R.Wrist			L.Thigh.Superior			L.Thigh.Lateral			L.Thigh.Inferior			L.Patella			L.Shank.Superior			L.Shank.Lateral			L.Shank.Inferior			L.Heel			L.Midfoot.Lateral			L.Midfoot.Superior			L.Toe			R.Thigh.Superior			R.Thigh.Lateral			R.Thigh.Inferior			R.Patella			R.Shank.Superior			R.Shank.Lateral			R.Shank.Inferior			R.Heel			R.Midfoot.Lateral			R.Midfoot.Superior			R.Toe			
		X1	Y1	Z1	X2	Y2	Z2	X3	Y3	Z3	X4	Y4	Z4	X5	Y5	Z5	X6	Y6	Z6	X7	Y7	Z7	X8	Y8	Z8	X9	Y9	Z9	X10	Y10	Z10	X11	Y11	Z11	X12	Y12	Z12	X13	Y13	Z13	X14	Y14	Z14	X15	Y15	Z15	X16	Y16	Z16	X17	Y17	Z17	X18	Y18	Z18	X19	Y19	Z19	X20	Y20	Z20	X21	Y21	Z21	X22	Y22	Z22	X23	Y23	Z23	X24	Y24	Z24	X25	Y25	Z25	X26	Y26	Z26	X27	Y27	Z27	X28	Y28	Z28	X29	Y29	Z29	X30	Y30	Z30	X31	Y31	Z31	X32	Y32	Z32	

36	15.192500000000	1049.227550847131	972.446271457603	610.338443266470	1017.121028924006	954.283220840743	370.083112301124	1097.185731150243	1430.409796287221	503.592918928130	1009.760894691295	1488.058761314009	679.318808984666	970.736648932978	1553.523166158771	499.747827783409	1017.030853949104	1502.097021927591	313.491141075893	897.701381940332	1202.740801468212	181.424644035201	968.388647872302	920.509350639985	167.898233623148	939.004697139749	1167.733610168629	822.045155808155	1149.334415802271	991.794184320511	726.337093092475	1047.117051927432	735.133914040088	340.406277605022	973.154584701487	665.441066349666	298.838026112452	1054.976031630666	604.645288838102	346.220226730144	1043.941486850154	461.392488140650	337.793320167289	944.262431805951	386.092824648364	364.400876295004	844.378093980185	372.952560653510	292.405617364899	845.964148115943	307.114098250034	378.159310948672	600.193891313798	200.161795710730	377.891064370450	654.520174995860	116.533045840866	332.469960022722	768.045550742352	112.348530909471	373.795833880282	822.009856462611	38.942955218011	399.722454098136	1075.377045562233	743.042232741000	634.863212604843	995.198655092639	659.330877052128	683.820557902646	1081.067652052438	614.943883290666	610.000871631700	1086.055330265366	514.576505797110	635.272070077653	1040.883216546023	414.017498539282	593.394684776105	967.982951170877	345.122873833518	673.148650336831	1016.850659648387	276.092298502539	586.594600774412	885.330515772457	54.254582739954	548.076338987508	964.157322524554	25.174003343520	620.965931080358	1070.135358931882	87.754350732650	596.309524611589	1173.424008990858	44.180671797544	595.513754271296	
37	15.209714285714	1051.914422723012	973.006613180959	613.440340095261	1015.811105611773	953.860841014044	372.239227651049	1098.781788717307	1429.267892873422	506.366949371268	1013.282587745485	1486.562586351188	683.141713079232	972.424919943429	1552.801841286790	504.153953739821	1017.095488628994	1501.944777589321	317.299803179132	895.964661403034	1202.737110451007	186.291639970860	966.414451117743	920.470820267394	172.487283056545	943.802463917426	1166.681751504726	827.251277417179	1153.879665107647	990.865227514023	731.196279175428	1054.418798919389	738.157256374680	340.218698887505	984.209296814077	665.955788554431	298.613026062484	1069.429358948161	608.577285014987	345.507563212272	1063.636004394757	463.974692753030	337.720649905121	961.538851465718	388.627286075134	364.038452873940	862.542387536325	378.042855560484	290.857576167651	860.368256095524	313.251108528533	376.935124396471	611.515991770160	221.031089116140	374.595413357180	660.037940999721	132.842824046797	330.013745669671	773.165622659360	120.154873329441	372.766270580878	820.326602238922	39.017400423175	398.975078544452	1072.283206422223	741.754436211326	634.734678978122	990.893070459876	659.467961056813	685.091398946829	1074.097621297127	613.384018737324	609.550450461077	1077.639661718467	513.494305985084	634.695737481630	1031.958625972478	413.903220217462	593.535818133528	960.078279601310	344.906322709524	673.753247120399	1008.384099436941	276.006049438001	586.770702127264	877.451130620223	54.028403523373	548.208321006188	956.244181519852	24.999944551065	621.115672568448	1062.203932283238	87.579745758836	596.259127345190	1165.575542027294	44.075723632457	595.491015590552	
38	15.226928571429	1054.433968714264	973.673728909172	616.428296145114	1014.492152234448	953.611929924723	374.172242492419	1100.151460666702	1428.180696296189	508.636008900806	1016.567022351362	1485.021162526652	686.430566565952	973.950540324411	1552.091021811906	508.034376173432	1016.887778073541	1501.804996854782	320.610975840411	894.290261946796	1202.369175763066	191.026446902373	965.035555487526	920.228622675550	176.746898160827	948.823644066266	1165.542191714754	831.995226169840	1158.439458257305	989.248877927575	736.186260262035	1061.414733678268	741.949792015850	340.983476883502	995.179795734297	667.269461748134	299.101946037185	1083.383306277724	613.607132376214	345.993501502254	1082.792748269738	467.725225475162	338.734768062481	978.709131655958	392.155121010631	364.485644507927	880.836832167675	383.593982655271	289.962234033082	875.180746734964	319.934233088313	376.440695854104	624.210142447917	239.824676588321	371.547022446027	668.223234430264	148.363504006960	327.553498184629	780.600557579188	128.780655424351	372.061194742750	822.051755092179	40.120411210092	398.197044382287	1068.941166149363	740.434082452286	634.164511188604	986.249866390032	659.725481906795	686.112005968220	1066.522011839024	611.878458390401	608.783038262672	1068.525288489073	512.615882401573	633.826211256684	1022.380987847601	414.055286480268	593.483451840889	951.816265825605	344.935295923491	674.290914199227	999.624486363525	276.170346763467	586.834532802471	869.563732544894	53.859974605797	548.386824085993	948.343379475754	24.869632707975	621.266820610715	1054.294590945933	87.452510579056	596.213407136161	1157.732405047338	43.988397198558	595.463027667800	
39	15.244142857143	1056.358798172394	974.187218441737	619.024595041712	1013.296098975128	953.691670532000	375.959143779728	1101.333407698707	1427.309444158977	510.364416934965	1019.626390367955	1483.612267029782	689.136022745463	975.356680236444	1551.527782695343	511.342605490218	1016.462815401228	1501.841817618804	323.394218284363	892.742348638661	1201.854940198889	195.527145963977	964.257796651742	919.974528669137	180.676135915633	954.014822814909	1164.531047759873	836.233907086613	1162.961162017591	987.198877496019	741.148805953091	1067.996578731144	746.524583423777	342.753581090543	1005.831604776536	669.483105169451	300.308737844228	1096.514856402298	619.668304803951	347.638751083914	1101.022936664391	472.580058874942	340.600431569885	995.468195717050	396.539785342645	365.574775663512	898.770097454139	389.406111554121	289.727832179988	890.181246227648	326.754676526556	376.580804024450	637.840708871804	255.060064807577	368.953289812978	679.233316222585	161.815150578835	325.220079228024	790.767257862752	137.591706377316	371.612732529081	828.281918483670	42.474999988879	397.337650373992	1065.317303837485	739.071903376814	633.479790826787	981.144012850145	660.065298091577	686.952867162414	1058.436170289037	610.455999090217	607.967972621045	1058.791859188654	511.937044274937	632.901788557297	1012.259876654794	414.480699575225	593.358674463351	943.157740101194	345.231694141333	674.797780531092	990.612762979794	276.599227145410	586.876240057864	861.658231442725	53.762693391552	548.618597766104	940.451065615651	24.782213503897	621.420383547882	1046.402433465981	87.378345161029	596.204553343537	1149.887493512474	43.941834183354	595.452206431402	
